<svg width="160" height="175" viewBox="0 0 160 175" fill="none" xmlns="http://www.w3.org/2000/svg">
<path d="M117.092 53.064C116.036 53.196 108.38 53.064 103.364 53.064H103.232H103.1C99.008 54.78 96.368 54.912 95.048 54.78C94.52 54.648 93.992 54.912 93.596 55.308C93.2 55.704 93.068 56.1 93.068 56.628C93.068 56.892 93.2 57.288 93.2 57.684C93.332 58.344 93.596 59.136 93.464 60.06C93.464 60.72 93.86 61.38 94.388 61.644C100.724 64.284 102.308 64.68 102.836 64.68C102.968 64.68 103.1 64.68 103.1 64.68C103.232 64.68 103.892 64.68 104.42 64.548C107.72 64.416 114.98 63.756 117.356 60.984C118.412 60.588 118.412 58.212 118.412 57.288C118.676 56.232 118.544 53.064 117.092 53.064ZM117.092 54.912C117.356 55.572 117.356 56.232 117.356 57.288C117.356 58.344 117.356 58.608 117.092 59.664C116.828 59.136 116.432 58.344 116.432 57.288C116.432 56.232 116.96 55.44 117.092 54.912Z" fill="#407BFF"/>
<path d="M112.076 122.496V122.364C110.36 95.7 107.984 85.272 104.948 77.748L104.816 77.352L97.688 76.692L98.48 77.88C98.48 78.012 104.684 86.46 101.252 97.416L101.12 97.68L101.252 97.944C101.252 97.944 104.156 103.884 104.552 122.892C104.552 123.024 104.552 123.156 104.552 123.288C104.684 124.344 106.136 124.872 107.588 124.872C107.852 124.872 108.116 124.872 108.38 124.872C109.304 124.74 110.096 124.476 110.756 124.212C112.076 123.552 112.076 122.892 112.076 122.496ZM108.512 123.42C107.192 123.552 106.268 123.288 106.136 123.156C106.268 123.024 106.928 122.496 108.38 122.364C108.644 122.364 108.908 122.364 109.04 122.364C109.964 122.364 110.492 122.628 110.624 122.628C110.624 122.76 109.832 123.288 108.512 123.42Z" fill="#407BFF"/>
<path d="M115.244 69.168C114.98 67.848 114.452 67.452 113.924 67.32C113.792 67.32 113.528 67.32 113.396 67.32C102.968 66 97.292 63.756 95.312 62.7C94.916 62.568 94.652 62.568 94.256 62.7C93.992 62.832 93.728 63.228 93.728 63.624C93.596 65.208 92.54 68.376 91.616 70.488C91.484 70.884 91.616 71.28 92.012 71.544C92.54 71.94 94.652 73.524 95.312 74.316C95.576 74.58 95.84 74.712 96.236 74.844C96.236 74.844 100.592 75.9 106.136 75.9C108.116 75.9 110.096 75.7679 112.208 75.3719H112.34C112.472 75.3719 112.472 75.3719 112.604 75.3719C113.264 75.3719 113.792 74.976 114.188 74.184C114.584 73.524 114.98 72.468 115.112 71.544C115.376 70.884 115.376 69.96 115.244 69.168ZM113.66 71.544C113.396 72.864 113 73.656 112.736 73.92C112.604 73.524 112.472 72.6 112.736 71.28C113 69.96 113.396 69.168 113.66 68.904C113.792 69.168 113.792 69.5639 113.792 70.0919C113.792 70.4879 113.66 71.016 113.66 71.544Z" fill="#407BFF"/>
<path d="M105.212 18.348C92.276 1.98003 75.776 7.39203 69.44 10.56C61.652 14.388 55.316 20.724 54.788 25.476C43.568 35.508 38.948 54.78 42.644 64.152C43.04 64.944 42.644 67.056 42.38 68.772C42.248 69.828 41.984 70.884 41.984 71.676C41.984 74.184 42.116 76.824 42.512 79.332C43.172 84.216 44.492 89.1 46.472 93.72C48.716 99 57.032 116.292 71.684 117.612C72.212 117.612 72.74 117.744 73.268 117.744C84.884 117.744 98.348 106.788 100.592 95.04C101.516 90.024 100.856 84.876 98.48 80.52C98.084 79.596 92.144 73.524 89.504 71.808C94.124 61.116 92.54 55.44 90.692 52.8C95.444 53.988 99.404 53.856 102.572 52.008C105.872 50.16 108.248 46.596 109.436 41.58C110.756 35.112 111.416 26.136 105.212 18.348ZM107.852 41.052C106.664 45.804 104.552 48.972 101.648 50.688C98.612 52.404 94.52 52.536 89.636 50.952C89.504 50.952 89.372 50.952 89.372 50.952C88.976 50.952 88.712 51.084 88.58 51.348C88.316 51.744 88.448 52.14 88.712 52.536C90.296 54.12 93.2 59.268 87.92 71.544C87.92 71.676 87.656 72.204 88.316 72.6C90.428 73.92 96.632 80.256 97.028 80.916C99.14 85.008 99.932 89.892 99.008 94.644C97.16 104.148 87.26 113.388 77.624 115.764C84.752 111.144 92.144 104.808 92.936 98.208C96.896 88.308 94.388 81.312 85.544 77.748C85.016 77.484 84.356 77.484 83.828 77.616C79.34 78.54 76.304 81.312 73.532 83.688C71.948 85.008 70.496 86.328 69.044 87.252C70.1 84.348 73.004 81.84 75.512 79.86L75.908 79.464C76.304 79.068 76.436 78.54 76.304 78.012C76.04 77.484 75.512 77.22 74.984 77.22C72.212 77.616 69.836 77.88 65.744 77.616C70.364 76.956 76.964 75.636 79.868 74.184C82.376 72.864 85.412 68.64 86.072 63.36C86.6 59.268 85.94 53.328 79.868 47.784C79.604 47.52 73.532 43.164 62.84 39.468C64.16 39.468 66.404 39.864 70.364 41.184C70.76 41.316 71.156 41.184 71.42 40.788C71.684 40.392 71.684 39.996 71.42 39.6C70.76 38.676 69.704 36.564 68.912 32.076C72.212 37.092 80.396 48.048 89.24 48.576C89.9 48.576 90.428 48.576 91.088 48.576C100.856 47.52 106.4 37.356 106.136 22.044C109.832 28.644 109.172 35.904 107.852 41.052Z" fill="#407BFF"/>
<path d="M2.4 165V137H4.76L20.44 161.1V137H22.6V165H20.28L4.56 140.9V165H2.4ZM36.0828 165.52C34.2428 165.52 32.5628 165.047 31.0428 164.1C29.5361 163.153 28.3295 161.887 27.4228 160.3C26.5295 158.7 26.0828 156.933 26.0828 155C26.0828 153.533 26.3428 152.167 26.8628 150.9C27.3828 149.62 28.0961 148.5 29.0028 147.54C29.9228 146.567 30.9895 145.807 32.2028 145.26C33.4161 144.713 34.7095 144.44 36.0828 144.44C37.5361 144.44 38.8761 144.727 40.1028 145.3C41.3428 145.86 42.4095 146.653 43.3028 147.68C44.1961 148.707 44.8828 149.92 45.3628 151.32C45.8428 152.707 46.0628 154.227 46.0228 155.88H28.3428C28.4895 157.307 28.9161 158.587 29.6228 159.72C30.3428 160.84 31.2628 161.727 32.3828 162.38C33.5028 163.02 34.7361 163.347 36.0828 163.36C37.5628 163.36 38.8961 162.973 40.0828 162.2C41.2695 161.413 42.2228 160.34 42.9428 158.98L45.1228 159.48C44.3228 161.253 43.1161 162.707 41.5028 163.84C39.8895 164.96 38.0828 165.52 36.0828 165.52ZM28.2828 154.04H43.8428C43.7628 152.667 43.3628 151.407 42.6428 150.26C41.9361 149.1 41.0095 148.173 39.8628 147.48C38.7161 146.787 37.4561 146.44 36.0828 146.44C34.7095 146.44 33.4561 146.78 32.3228 147.46C31.1895 148.14 30.2628 149.06 29.5428 150.22C28.8361 151.367 28.4161 152.64 28.2828 154.04ZM51.6694 175H49.5094V145H51.6694V149.12C52.376 147.733 53.3627 146.613 54.6294 145.76C55.9094 144.907 57.436 144.48 59.2094 144.48C60.6627 144.48 62.0227 144.753 63.2894 145.3C64.556 145.847 65.6694 146.607 66.6294 147.58C67.6027 148.54 68.3627 149.653 68.9094 150.92C69.456 152.187 69.7294 153.547 69.7294 155C69.7294 156.453 69.456 157.82 68.9094 159.1C68.3627 160.38 67.6027 161.507 66.6294 162.48C65.6694 163.44 64.556 164.193 63.2894 164.74C62.0227 165.287 60.6627 165.56 59.2094 165.56C57.436 165.56 55.9094 165.133 54.6294 164.28C53.3627 163.427 52.376 162.307 51.6694 160.92V175ZM59.1894 146.6C57.6694 146.6 56.356 146.98 55.2494 147.74C54.156 148.487 53.3094 149.493 52.7094 150.76C52.1227 152.027 51.8294 153.44 51.8294 155C51.8294 156.533 52.1227 157.94 52.7094 159.22C53.296 160.5 54.136 161.527 55.2294 162.3C56.336 163.06 57.656 163.44 59.1894 163.44C60.696 163.44 62.076 163.067 63.3294 162.32C64.596 161.573 65.616 160.567 66.3894 159.3C67.1627 158.02 67.5494 156.587 67.5494 155C67.5494 153.467 67.1694 152.067 66.4094 150.8C65.6627 149.52 64.656 148.5 63.3894 147.74C62.136 146.98 60.736 146.6 59.1894 146.6ZM90.2631 152.7V165H88.1031V153.04C88.1031 151.853 87.8165 150.773 87.2431 149.8C86.6698 148.827 85.8965 148.053 84.9231 147.48C83.9498 146.907 82.8698 146.62 81.6831 146.62C80.5098 146.62 79.4365 146.907 78.4631 147.48C77.4898 148.053 76.7098 148.827 76.1231 149.8C75.5498 150.773 75.2631 151.853 75.2631 153.04V165H73.1031V135H75.2631V148.06C75.9831 146.953 76.9365 146.073 78.1231 145.42C79.3098 144.767 80.6031 144.44 82.0031 144.44C83.5365 144.44 84.9231 144.813 86.1631 145.56C87.4165 146.293 88.4098 147.287 89.1431 148.54C89.8898 149.793 90.2631 151.18 90.2631 152.7ZM94.275 165V145H96.435V148.06C97.155 146.953 98.1083 146.073 99.295 145.42C100.482 144.767 101.775 144.44 103.175 144.44C103.962 144.44 104.715 144.54 105.435 144.74L104.535 146.86C103.962 146.7 103.402 146.62 102.855 146.62C101.682 146.62 100.608 146.907 99.635 147.48C98.6617 148.053 97.8817 148.827 97.295 149.8C96.7217 150.773 96.435 151.853 96.435 153.04V165H94.275ZM115.731 165.52C113.891 165.52 112.211 165.047 110.691 164.1C109.185 163.153 107.978 161.887 107.071 160.3C106.178 158.7 105.731 156.933 105.731 155C105.731 153.533 105.991 152.167 106.511 150.9C107.031 149.62 107.745 148.5 108.651 147.54C109.571 146.567 110.638 145.807 111.851 145.26C113.065 144.713 114.358 144.44 115.731 144.44C117.571 144.44 119.245 144.913 120.751 145.86C122.271 146.807 123.478 148.08 124.371 149.68C125.278 151.28 125.731 153.053 125.731 155C125.731 156.453 125.471 157.813 124.951 159.08C124.431 160.347 123.711 161.467 122.791 162.44C121.885 163.4 120.825 164.153 119.611 164.7C118.411 165.247 117.118 165.52 115.731 165.52ZM115.731 163.36C117.211 163.36 118.538 162.973 119.711 162.2C120.898 161.427 121.838 160.407 122.531 159.14C123.225 157.873 123.571 156.493 123.571 155C123.571 153.493 123.225 152.1 122.531 150.82C121.838 149.54 120.898 148.52 119.711 147.76C118.525 146.987 117.198 146.6 115.731 146.6C114.251 146.6 112.918 146.987 111.731 147.76C110.545 148.533 109.605 149.56 108.911 150.84C108.231 152.107 107.891 153.493 107.891 155C107.891 156.56 108.245 157.973 108.951 159.24C109.671 160.493 110.625 161.493 111.811 162.24C112.998 162.987 114.305 163.36 115.731 163.36ZM136.702 137H139.542L149.742 165H147.442L145.142 158.68H131.122L128.822 165H126.522L136.702 137ZM131.902 156.52H144.342L138.122 139.46L131.902 156.52ZM154.172 165V137H156.332V165H154.172Z" fill="black"/>
</svg>
